<svg width="128" height="128" xmlns="http://www.w3.org/2000/svg">

 <g>
  <title>background</title>
  <rect fill="none" id="canvas_background" height="402" width="582" y="-1" x="-1"/>
 </g>
 <g>
  <title>Layer 1</title>
  <rect id="svg_1" width="128" height="128" fill-rule="evenodd" fill="none" clip-rule="evenodd"/>
  <path id="Vine" fill-rule="evenodd" fill="#ffffff" d="m119.652,63.632c-3.269,0.76 -6.435,1.096 -9.28,1.096c-16.021,0 -28.352,-11.28 -28.352,-30.892c0,-9.612 3.686,-14.612 8.899,-14.612c4.959,0 8.264,4.488 8.264,13.588c0,5.176 -1.377,10.844 -2.388,14.2c0,0 4.936,8.68 18.433,6.016c2.865,-6.412 4.424,-14.724 4.424,-22.012c0,-19.608 -9.919,-31.016 -28.098,-31.016c-18.687,0 -29.621,14.484 -29.621,33.58c0,18.92 8.772,35.164 23.238,42.564c-6.082,12.264 -13.823,23.072 -21.897,31.216c-14.644,-17.852 -27.884,-41.664 -33.319,-88.136l-21.607,0c9.982,77.396 39.735,102.041 47.598,106.773c4.452,2.692 8.284,2.564 12.351,0.256c6.388,-3.664 25.567,-22.992 36.196,-45.636c4.459,-0.012 9.82,-0.528 15.16,-1.748l0,-15.237l-0.001,0z" clip-rule="evenodd"/>
 </g>
</svg>