<svg width="64" height="64" xmlns="http://www.w3.org/2000/svg">

 <g>
  <title>background</title>
  <rect fill="none" id="canvas_background" height="402" width="582" y="-1" x="-1"/>
 </g>
 <g>
  <title>Layer 1</title>
  <path fill="#ffffff" id="svg_1" d="m4,13.9c2.1,0 5.3,0 7.1,0c0.9,0 1.6,0.6 1.9,1.4c0.9,2.6 2.9,8.3 5.2,12.2c3.1,5.1 5.1,7 6.4,6.8c1.3,-0.3 0.9,-3.7 0.9,-6.4s0.3,-7.3 -1,-9.4l-2,-2.9c-0.5,-0.7 0,-1.6 0.8,-1.6l11.4,0c1.1,0 2,0.9 2,2l0,14.5c0,0 0.5,2.6 3.3,-0.1c2.8,-2.7 5.8,-7.7 8.3,-12.8l1,-2.4c0.3,-0.7 1,-1.2 1.8,-1.2l7.4,0c1.4,0 2.4,1.4 1.9,2.7l-0.8,2.1c0,0 -2.7,5.4 -5.5,9.2c-2.8,3.9 -3.4,4.8 -3,5.8c0.4,1 7.6,7.7 9.4,10.9c0.5,0.9 0.9,1.7 1.3,2.4c0.7,1.3 -0.3,3 -1.8,3l-8.4,0c-0.7,0 -1.4,-0.4 -1.7,-1l-0.8,-1.3c0,0 -5.1,-6 -8.2,-7.9c-3.2,-1.8 -3.1,0.8 -3.1,0.8l0,5.3c0,2.2 -1.8,4 -4,4l-2,0c0,0 -11,0 -19.8,-13.1c-6.9,-10.2 -9.2,-16.8 -10,-20.6c-0.2,-1.2 0.7,-2.4 2,-2.4z" class="st13"/>
 </g>
</svg>